<?xml version="1.0" standalone="no"?>
<!DOCTYPE svg PUBLIC "-//W3C//DTD SVG 1.1//EN" "http://www.w3.org/Graphics/SVG/1.1/DTD/svg11.dtd" >
<svg xmlns="http://www.w3.org/2000/svg" xmlns:svg="http://www.w3.org/2000/svg" xmlns:xlink="http://www.w3.org/1999/xlink" viewBox="0 0 1024 1024"><path d="M887.92 953.37Q892.66 924.73 854.75 905.61Q847.49 900.72 818.78 898.78Q814.6 864.75 810.56 868.36L816.12 824.04Q817.45 816.49 849.56 813.63L864.49 854.22Q883.41 164.41 839.9 91.34L867.39 79.94Q873.37 80.17 923.02 53.29L927.46 90.48Q942.45 106.58 952.24 116.56Q944.28 176.82 965.27 923.55Q932.16 949.06 899.33 945.87ZM119.78 923.17Q76.45 945.22 91.02 911.16Q74.41 906.06 75.89 882.26L60.18 865.45Q124.21 855.7 156.88 838.25Q199.06 810.8 216.71 764.54L236.73 787.9Q260.05 800.96 262.48 843.33L232.55 854.41L150 937.05Q129.41 924.45 109.39 950.36ZM369.58 905.15L335.01 899.47Q327.33 872.44 329.6 874.85Q325.33 818.12 337.39 815.07Q379.82 786.79 375.72 747.13Q373.42 749.59 430.74 754.39L423.71 744.18Q427.49 752.32 460.69 799.46Q450.15 826.24 410.35 857.8Q410.47 885.98 392.78 890.34Q379.14 905.79 375.64 927.12ZM595.97 895.89L585.45 857.96Q544.99 854.22 535.09 822.61Q488.77 779.95 484.62 730.81L487.73 723.32Q498.59 697.2 549.91 731.13L545.47 741.11L617.9 817.8Q665.05 838.28 640.72 827.46L639.76 880.07Q616.72 890.21 587.15 884.56ZM363.02 691.65Q326.43 664.52 333.26 660.79Q324.66 628.94 311.35 126.4Q330.55 75.25 359.52 93.11Q354.9 82.66 476.16 106.24Q593.82 97.2 611.58 108.69Q617.74 94.32 624.53 129.34Q607.37 145.68 639.37 633.36Q647.76 677.07 596.44 678.8Q586.16 660.39 356.33 694.3ZM565.78 600.6L556.3 489.72L410.81 487.41L408.69 598.26ZM702.13 537.25L713.63 554.18Q686.25 545.67 693.98 507.14L688.88 140.39Q668.77 119.46 691.44 110.09Q689.27 74.9 723.92 98.74L748.37 79.46L766.65 118.29L764.11 544.22L770.75 556.01Q722.99 551.01 719.76 537.53ZM219.16 490.25Q188.48 466.2 161.37 444.86Q122.92 446.74 65.81 418.58Q85.32 402.39 85.01 388.91L63.17 372.14Q92.08 368.11 114.92 354.74Q212.49 413.83 261.24 419.57Q252.39 407.69 262.66 432.6L251.96 458.6Q246.89 463.2 213.01 485.83ZM566.07 385.69L567.06 337.47H399.34L386.81 383.14ZM555.1 229.93L533.39 166.75H403.09V230.61ZM195.7 203.98Q198.19 174.55 158.69 157.68Q94.36 177.48 75.38 170.88Q85.12 155.26 82.21 114.84L76.95 98.58Q89.95 98.09 119.4 94.16Q150.49 91 173.26 109.45Q235.23 143.71 260.04 156.81Q249.13 148.82 266.29 186.77L249.34 211.55Q250.32 221.13 206.64 222.33Z" fill="black"></path></svg>