<?xml version="1.0" standalone="no"?>
<!DOCTYPE svg PUBLIC "-//W3C//DTD SVG 1.1//EN" "http://www.w3.org/Graphics/SVG/1.1/DTD/svg11.dtd" >
<svg xmlns="http://www.w3.org/2000/svg" xmlns:svg="http://www.w3.org/2000/svg" xmlns:xlink="http://www.w3.org/1999/xlink" viewBox="0 0 1024 1024"><path d="M918.64 959.12Q875.05 951.6 844.51 932.51Q810.87 927.66 804.85 873.2Q779.83 887.12 781.34 866.14L817.52 839.69Q821.59 803.71 856.22 809.94L892.01 821.37Q840.95 157.69 845.72 84.35L863.01 64.52Q892.73 80.83 900.32 77.02L905.25 80.08Q923.13 94.98 933.92 111.04Q911.51 139.66 933.1 918.02Q932.14 925.1 898.35 924.69ZM97.13 928.61Q83.14 924.46 55.62 903.4Q67.29 897.42 73.03 889.61L75.5 867.06Q116.03 841.24 152.25 805.36Q147.34 767.5 200.6 765.75L218.42 774.08Q256.53 797 246.45 815.56L237.68 840.26L97.18 929.64Q90.41 927.16 105.53 931.05ZM332.34 903.79L329.52 878.85Q307.74 877.29 304.43 819.35Q311.69 801.93 309.08 780.23Q332.39 759.35 368.48 736.26Q373.36 701.34 389.01 724.46L419.13 731.68Q410.5 730.68 412.31 742.67Q409.36 769.12 379.93 830.25Q366.07 844.64 368.84 870.87Q354.89 895.9 342.24 887.08ZM575.2 842.47L522.66 820.87Q514.58 794.45 482.82 780.51Q450.11 726.1 466.98 713.09L453.43 692.95Q494.22 665.97 489.49 695.3L535.59 703.76L589.63 775.33Q589.45 776.28 604.14 812.4L604.82 836.28Q565.16 816.67 558.58 832.86ZM338.97 610.75Q284.77 619.41 279.13 618.58Q297.73 574.41 259.22 79.73Q286.39 56.1 283.21 39.32Q314.15 20.43 410.57 46.31Q516.37 48.27 540.17 58.47Q548.7 29.99 568.71 68.2Q552.88 99.43 577.75 587.63Q572.24 598.95 577.18 621.46Q528.88 630.98 311.23 636.94ZM488.35 536.44L474.84 401.83L361.97 405.49L363.93 530.96ZM664.9 475.25L642.69 476.33Q603.8 457.75 636.51 439.76L606.18 64.03Q632.79 28.82 610.06 27.58Q619.68 4.73 679.04 13.96L672.71 13.04L673.72 36.42L701.56 464L687.11 466.34Q652.37 501.93 649.29 479.78ZM164.49 419.5Q124.41 388.35 78.19 366.23Q15.67 365.14 -0.85 355.74Q-10.08 347.62 -0.58 333.95L-6.89 309.14Q-3.39 295.4 46.14 287.63Q150.74 301.09 176.28 317.23Q181.41 355.02 190.5 370.97L163.6 394.27Q159.13 406.91 149.54 392.28ZM452.42 321.13L465.42 239.2H314.57L299.6 297.58ZM468.17 172.76L447.74 54.23H313.83V162.42ZM102.88 121.95Q65 84.6 57.41 72.34Q14.12 75.14 -13.55 41.51Q-44.15 43.56 -41.35 34.62L-31.49 -4.5Q-1.22 -29.99 43.58 3.46Q73.54 1.65 97.48 11.84Q116.19 35.58 133.29 39.54Q160.19 61.93 140.3 53.28L143.39 91.64Q144.88 95.79 105.84 109.35Z" fill="black"></path></svg>