<?xml version="1.0" standalone="no"?>
<!DOCTYPE svg PUBLIC "-//W3C//DTD SVG 1.1//EN" "http://www.w3.org/Graphics/SVG/1.1/DTD/svg11.dtd" >
<svg xmlns="http://www.w3.org/2000/svg" xmlns:svg="http://www.w3.org/2000/svg" xmlns:xlink="http://www.w3.org/1999/xlink" viewBox="0 0 1024 1024"><path d="M921.37 930.64Q893.37 924.64 802.73 865.64Q845.37 894.64 756.73 830.64Q811.37 860.64 746.73 794.64L823.37 818.64Q837.37 806.64 792.73 764.64L893.37 828.64Q881.37 132.64 806.73 44.64L883.37 68.64Q899.37 56.64 854.73 14.64L941.37 68.64Q955.37 92.64 889.73 77.64Q957.37 150.64 906.73 852.64Q956.37 938.64 854.73 886.64ZM123.37 928.64Q107.37 926.64 28.73 872.64Q83.37 902.64 18.73 836.64L95.37 860.64Q131.37 836.64 98.73 763.64Q199.37 778.64 175.73 722.64L262.37 776.64Q274.37 790.64 205.73 768.64L256.37 836.64L153.37 916.64Q139.37 926.64 56.73 884.64ZM376.37 898.64L356.37 888.64Q342.37 872.64 279.73 804.64Q358.37 820.64 302.73 746.64Q380.37 760.64 327.73 687.64Q408.37 719.64 363.73 677.64L450.37 731.64Q462.37 748.64 393.73 726.64Q450.37 800.64 371.73 786.64Q426.37 860.64 345.73 844.64Q398.37 900.64 309.73 854.64ZM614.37 862.64L590.37 848.64Q566.37 820.64 471.73 750.64Q510.37 768.64 441.73 687.64L518.37 711.64Q534.37 699.64 489.73 657.64L576.37 711.64L642.37 786.64Q662.37 804.64 593.73 788.64L650.37 852.64Q636.37 864.64 547.73 818.64ZM388.37 663.64Q354.37 662.64 284.73 602.14Q348.37 629.64 269.73 82.64Q337.37 75.64 296.23 29.14Q388.37 70.64 423.23 28.14Q591.37 73.64 546.73 31.64Q635.37 77.64 571.23 61.14Q640.37 132.64 590.73 574.64Q650.37 648.64 564.73 609.64Q612.37 658.64 321.73 619.64ZM576.37 575.64L570.37 461.64L422.37 459.64L424.37 577.64ZM734.37 541.64L714.37 531.64Q704.37 519.64 635.73 459.64L696.37 112.64Q698.37 96.64 641.73 40.64Q722.37 72.64 677.73 30.64L765.37 84.64L775.37 104.64L781.37 511.64L771.37 531.64Q757.37 543.64 667.73 497.64ZM244.37 463.64Q205.37 453.64 100.73 400.64Q129.37 435.64 28.73 373.64Q83.37 403.64 18.73 337.64L95.37 361.64Q111.37 347.64 68.73 307.64Q242.37 381.64 207.73 351.64Q286.37 409.64 217.73 387.64L274.37 451.64Q260.37 461.64 177.73 419.64ZM568.37 383.64L566.37 309.64H414.37L418.37 381.64ZM562.37 230.64L560.37 152.64H414.37V261.37ZM229.37 190.64Q195.37 178.64 95.73 118.64Q129.37 146.64 28.73 92.64Q83.37 122.64 18.73 56.64L95.37 80.64Q115.37 66.64 78.73 26.64Q175.37 80.64 137.73 51.64Q233.37 110.64 197.73 78.64Q278.37 138.64 209.73 116.64L266.37 180.64Q252.37 192.64 162.73 146.64Z" fill="black"></path></svg>