<?xml version="1.0" standalone="no"?>
<!DOCTYPE svg PUBLIC "-//W3C//DTD SVG 1.1//EN" "http://www.w3.org/Graphics/SVG/1.1/DTD/svg11.dtd" >
<svg xmlns="http://www.w3.org/2000/svg" xmlns:svg="http://www.w3.org/2000/svg" xmlns:xlink="http://www.w3.org/1999/xlink" viewBox="0 0 1024 1024"><path d="M905.0 945.0Q877.0 939.0 853.0 924.0Q829.0 909.0 807.0 889.0Q795.0 875.0 797.0 853.0L807.0 833.0Q821.0 821.0 843.0 823.0L877.0 843.0Q865.0 147.0 857.0 103.0L867.0 83.0Q883.0 71.0 905.0 73.0L925.0 83.0Q939.0 107.0 940.0 136.0Q941.0 165.0 957.0 911.0Q940.0 953.0 905.0 945.0ZM107.0 943.0Q91.0 941.0 79.0 931.0Q67.0 917.0 69.0 895.0L79.0 875.0Q115.0 851.0 149.0 822.0Q183.0 793.0 226.0 781.0L246.0 791.0Q258.0 805.0 256.0 827.0L240.0 851.0L137.0 931.0Q123.0 941.0 107.0 943.0ZM360.0 913.0 340.0 903.0Q326.0 887.0 330.0 863.0Q342.0 835.0 353.0 805.0Q364.0 775.0 378.0 746.0Q392.0 734.0 414.0 736.0L434.0 746.0Q446.0 763.0 444.0 785.0Q434.0 815.0 422.0 845.0Q410.0 875.0 396.0 903.0Q382.0 915.0 360.0 913.0ZM598.0 877.0 574.0 863.0Q550.0 835.0 522.0 809.0Q494.0 783.0 492.0 746.0L502.0 726.0Q518.0 714.0 540.0 716.0L560.0 726.0L626.0 801.0Q646.0 819.0 644.0 847.0L634.0 867.0Q620.0 879.0 598.0 877.0ZM372.0 678.0Q338.0 677.0 335.0 660.5Q332.0 644.0 320.0 141.0Q321.0 90.0 346.5 87.5Q372.0 85.0 473.5 86.5Q575.0 88.0 597.0 90.0Q619.0 92.0 621.5 119.5Q624.0 147.0 641.0 633.0Q634.0 663.0 615.0 668.0Q596.0 673.0 372.0 678.0ZM560.0 590.0 554.0 476.0 406.0 474.0 408.0 592.0ZM718.0 556.0 698.0 546.0Q688.0 534.0 686.0 518.0L680.0 127.0Q682.0 111.0 692.0 99.0Q706.0 87.0 728.0 89.0L749.0 99.0L759.0 119.0L765.0 526.0L755.0 546.0Q741.0 558.0 718.0 556.0ZM228.0 478.0Q189.0 468.0 151.0 459.0Q113.0 450.0 79.0 432.0Q67.0 418.0 69.0 396.0L79.0 376.0Q95.0 362.0 119.0 366.0Q226.0 396.0 258.0 410.0Q270.0 424.0 268.0 446.0L258.0 466.0Q244.0 476.0 228.0 478.0ZM552.0 398.0 550.0 324.0H398.0L402.0 396.0ZM546.0 245.0 544.0 167.0H398.0V245.0ZM213.0 205.0Q179.0 193.0 146.0 177.0Q113.0 161.0 79.0 151.0Q67.0 137.0 69.0 115.0L79.0 95.0Q99.0 81.0 129.0 85.0Q159.0 95.0 188.0 110.0Q217.0 125.0 248.0 137.0Q262.0 153.0 260.0 175.0L250.0 195.0Q236.0 207.0 213.0 205.0Z" fill="black"></path></svg>